<svg xmlns="http://www.w3.org/2000/svg" width="66.8231339651262" height="36.27891161758566" style=""><rect id="backgroundrect" width="100%" height="100%" x="0" y="0" fill="none" stroke="none" class="" style=""/><g class="currentLayer" style=""><title>Layer 1</title><path fill="#0C0" d="M18.681901855468737,1.464558906555176 c10.18,0 13.06,5.6 11.22,16.82 c-1.94,11.76 -5.46,15.64 -15.82,15.64 c-10.4,0 -13.46,-4.52 -11.66,-15.92 c2.03,-13.02 6.11,-16.54 16.26,-16.54 zm-4.46,29 c6.75,0 10.39,-1.3 12.23,-12.33 c1.84,-11.17 -1.1,-13.23 -8.19,-13.23 c-6.88,0 -10.41,1.24 -12.39,13.23 c-1.82,11.1 1.6900000000000004,12.33 8.35,12.33 zm25.17,-28.7 H41.76190185546875 l0.4800000000000001,3.72 c3.98,-2.16 8.02,-4.26 12.88,-4.26 c6.36,0 9.06,4.92 8.22,10.2 l-3.54,22.2 h-3.45 l3.54,-22.2 c0.6600000000000003,-4.22 -1.52,-6.75 -5.33,-6.75 c-4.96,0 -7.79,1.22 -12.71,3.5 l-4.04,25.45 h-3.45 l5.03,-31.86 z" id="svg_2" class=""/></g></svg>